<svg id="Layer_1" data-name="Layer 1" xmlns="http://www.w3.org/2000/svg" viewBox="0 0 123.2 71.01"><defs><style>.cls-1{fill:#b3b3b3;}.cls-2{fill:#002b4f;}</style></defs><path class="cls-1" d="M140.28,261.2a26.31,26.31,0,0,0,9.06-1.59l.06,0,.06,0a26.35,26.35,0,0,0,33.66-34.14l0-.06,0-.07a26.34,26.34,0,0,0-33.73-33.55l-.06,0-.06,0a26.36,26.36,0,0,0-33.78,34l0,.06,0,.06a26.34,26.34,0,0,0,24.79,35.33Zm9.12-2.52-.06,0a25.52,25.52,0,0,1-8.87-5.77,26.23,26.23,0,0,1-2.67-3.16l-.41-.57.63.3a26.52,26.52,0,0,0,22.88-.17l.64-.32-.42.59a25.52,25.52,0,0,1-11.65,9.1ZM127.11,213l0,0,0,0a25.92,25.92,0,0,1,5.16-2.35l.3-.1-.07.31A26.46,26.46,0,0,0,133.65,226l0,.06,0,.07a26.48,26.48,0,0,0-.83,14.55l.07.31-.3-.09a25.55,25.55,0,0,1-5.27-2.33l0,0,0,0A25.58,25.58,0,0,1,127.11,213Zm-1.31,24.55-.58-.42a25.85,25.85,0,0,1-3.07-2.62,25.29,25.29,0,0,1-5.7-8.67l0-.07,0-.06a25.26,25.26,0,0,1,5.79-8.92,27.67,27.67,0,0,1,2.84-2.46l.57-.42-.3.65a26.36,26.36,0,0,0,.14,22.35Zm49-12a25.45,25.45,0,0,1-3.46,12.85l0,0,0,0a25.37,25.37,0,0,1-5,2.27l-.3.1.07-.31a26.45,26.45,0,0,0-1-15l0-.07,0-.06a26.43,26.43,0,0,0,.92-14.8l-.07-.31.3.1a24.8,24.8,0,0,1,5.17,2.28l0,0,0,0A25.4,25.4,0,0,1,174.79,225.63Zm-2-11.9.57.41a25.45,25.45,0,0,1,3.15,2.68,25.18,25.18,0,0,1,5.63,8.52l0,.06,0,.07a25.16,25.16,0,0,1-5.87,9.16,25.82,25.82,0,0,1-2.91,2.51l-.58.43.31-.66a26.48,26.48,0,0,0,0-22.55Zm-38.79,14,.13-.47.21.45a26,26,0,0,0,5.26,7.52,26.38,26.38,0,0,0,7.85,5.42l.44.2-.47.14a25.74,25.74,0,0,1-7.26,1,25.26,25.26,0,0,1-6.26-.77l-.11,0,0-.11A25.5,25.5,0,0,1,134,227.72Zm0-3.34a25.64,25.64,0,0,1-.45-14l0-.1.1,0a25.82,25.82,0,0,1,14.06.24l.47.14-.45.2a26.22,26.22,0,0,0-13.42,13.6l-.2.44Zm6.24,10.25a25.43,25.43,0,0,1-5.63-8.52l0-.06,0-.07a25.55,25.55,0,0,1,14.71-14.93l.06,0,.07,0A25.62,25.62,0,0,1,164,225.51l0,.06,0,.07a25.6,25.6,0,0,1-14.8,14.74l-.06,0-.07,0A25.21,25.21,0,0,1,140.23,234.63Zm10.34-24,.46-.14a25.82,25.82,0,0,1,13.76-.33l.1,0,0,.1a25.9,25.9,0,0,1-.31,13.67l-.14.46-.2-.44A26.49,26.49,0,0,0,151,210.79Zm.23,30a26.41,26.41,0,0,0,13.48-13.44l.2-.44.14.46a25.93,25.93,0,0,1,.41,13.86l0,.1-.1,0a25.89,25.89,0,0,1-6.65.87,25.42,25.42,0,0,1-7.43-1.1l-.47-.14ZM165.66,242l0-.1.1,0a25.68,25.68,0,0,0,3.93-1.51l.65-.32-.42.59a25.61,25.61,0,0,1-5.44,5.49l-.57.43.3-.65A27.51,27.51,0,0,0,165.66,242ZM169.79,211a26.26,26.26,0,0,0-4.11-1.53l-.1,0,0-.1a26.78,26.78,0,0,0-1.55-4.16l-.31-.64.58.42a24.51,24.51,0,0,1,3,2.6,25.92,25.92,0,0,1,2.7,3.17l.41.57Zm-5.24-2.1.09.3-.3-.07a26.47,26.47,0,0,0-14.88.94l-.06,0-.06,0a26.32,26.32,0,0,0-9.06-1.6,27,27,0,0,0-6.14.72l-.31.08.09-.31a25.46,25.46,0,0,1,2.31-5.26l.07-.07a25.65,25.65,0,0,1,25.87-.06l0,0,0,0A25.43,25.43,0,0,1,164.55,208.94Zm-30.09-3.65a26.14,26.14,0,0,0-1.55,4.18l0,.09-.1,0a24.74,24.74,0,0,0-4.1,1.61l-.64.31.41-.58a25.17,25.17,0,0,1,2.8-3.33,25.44,25.44,0,0,1,2.94-2.53l.58-.43Zm-5.61,35a25.48,25.48,0,0,0,4.18,1.56l.1,0,0,.1a26.91,26.91,0,0,0,1.54,4.13l.3.63-.57-.41a25.82,25.82,0,0,1-3.18-2.69,24.92,24.92,0,0,1-2.62-3.08l-.42-.58Zm5.32,2.14-.09-.3.3.06a26.47,26.47,0,0,0,14.7-.88l.06,0,.06,0a26.32,26.32,0,0,0,9.07,1.59,26.66,26.66,0,0,0,6.16-.72l.31-.07-.1.3a25.27,25.27,0,0,1-2.16,5l0,0,0,0a25.54,25.54,0,0,1-25.91.2l0,0,0,0A25.45,25.45,0,0,1,134.17,242.46Zm42.37,10.43a25.57,25.57,0,0,1-25.48,6.37l-.47-.14.45-.2a26.25,26.25,0,0,0,7.8-5.35l.14-.14a26.33,26.33,0,0,0,4.08-5.31l.06-.06a26.45,26.45,0,0,0,8.79-8.89l.06-.06a26.85,26.85,0,0,0,4.93-3.88,26.27,26.27,0,0,0,5.55-8.18l.19-.45.15.47A25.47,25.47,0,0,1,176.54,252.89ZM151,192.14a25.8,25.8,0,0,1,7.26-1,25.49,25.49,0,0,1,24.49,32.63l-.14.46-.2-.44A26.45,26.45,0,0,0,172,212.22l-.07-.06a26.33,26.33,0,0,0-4-5.16,26,26,0,0,0-5-4l-.06-.06a26.8,26.8,0,0,0-4-5.1,26.33,26.33,0,0,0-7.84-5.4l-.45-.2Zm-1.67.56.06,0a25.08,25.08,0,0,1,8.83,5.75,25.35,25.35,0,0,1,2.63,3.09l.42.57-.64-.3a26.5,26.5,0,0,0-22.79,0l-.65.31.43-.58a25.5,25.5,0,0,1,11.64-8.89Zm-34.65,23.82a25.53,25.53,0,0,1,33-24.39l.47.14-.45.2a26.32,26.32,0,0,0-12,10.57l-.06.07a26.52,26.52,0,0,0-4.95,3.89,26.24,26.24,0,0,0-4.13,5.36l-.06.06a27.4,27.4,0,0,0-4.82,3.81,26.46,26.46,0,0,0-5.46,8l-.2.44-.14-.46A25.64,25.64,0,0,1,114.68,216.52Zm1.17,10.94L116,227l.2.44a26.51,26.51,0,0,0,5.36,7.71,26.9,26.9,0,0,0,5.07,4l.07.06a26.36,26.36,0,0,0,4,5.09,26.71,26.71,0,0,0,5.16,4l.07.06a26.38,26.38,0,0,0,11.88,10.57l.45.2-.47.14a25.71,25.71,0,0,1-7.46,1.1,25.49,25.49,0,0,1-25.51-25.49A25.65,25.65,0,0,1,115.85,227.46Z" transform="translate(-113.83 -190.19)"/><path class="cls-2" d="M149.11,220h7.41v1.19h-6.07v4h5v1.17h-5v5.45h-1.34Z" transform="translate(-113.83 -190.19)"/><path class="cls-2" d="M159.12,220h1.34v11.78h-1.34Z" transform="translate(-113.83 -190.19)"/><path class="cls-2" d="M162.74,220h1.37l3.23,10h0l3.28-10H172l-4,11.84h-1.32Z" transform="translate(-113.83 -190.19)"/><path class="cls-2" d="M174.28,220h7.56v1.19h-6.22v3.93h5.23v1.17h-5.23v4.31h6.25v1.19h-7.59Z" transform="translate(-113.83 -190.19)"/><path class="cls-2" d="M189.64,220h4.18c2.24,0,3.84,1.29,3.84,3.51a3.31,3.31,0,0,1-2.87,3.41l3.42,4.87h-1.49L193.4,227H191v4.76h-1.34Zm3.88,5.92c1.78,0,2.82-.77,2.82-2.42s-1.12-2.38-2.85-2.38H191v4.8Z" transform="translate(-113.83 -190.19)"/><path class="cls-2" d="M200.74,220h1.33v11.78h-1.33Z" transform="translate(-113.83 -190.19)"/><path class="cls-2" d="M205.46,220h1.34l6.07,9.47h0V220h1.27v11.79h-1.31l-6.12-9.61h0v9.61h-1.25Z" transform="translate(-113.83 -190.19)"/><path class="cls-2" d="M217.3,228v-4.09a4.15,4.15,0,0,1,4.46-4.18c2.34,0,4.21,1.29,4.21,3.47v.56H224.7v-.39c0-1.59-1.24-2.45-3-2.45a2.9,2.9,0,0,0-3.11,3v4a2.9,2.9,0,0,0,3.19,2.9c1.72,0,2.94-.92,2.94-2.51V227h-3.24v-1.19H226v2.68c0,2.23-1.78,3.53-4.21,3.53S217.3,230.6,217.3,228Z" transform="translate(-113.83 -190.19)"/><path class="cls-2" d="M228.45,229.13l1.22-.45a3.2,3.2,0,0,0,3.25,2.1c1.56,0,2.81-.76,2.81-2.11s-.77-1.77-1.81-2.1l-2.23-.63c-1.65-.46-2.61-1.32-2.61-3,0-1.95,1.65-3.17,3.78-3.17,1.81,0,3.33.68,3.94,2.23l-1.15.46a2.92,2.92,0,0,0-2.81-1.57c-1.2,0-2.44.61-2.44,1.93,0,.93.56,1.57,1.95,2l2.24.62a3,3,0,0,1,2.45,3.11c0,2-1.67,3.41-4.18,3.41C230.71,232,229,231,228.45,229.13Z" transform="translate(-113.83 -190.19)"/></svg>